<svg xmlns="http://www.w3.org/2000/svg" xmlns:xlink="http://www.w3.org/1999/xlink" width="500" zoomAndPan="magnify" viewBox="0 0 375 374.999991" height="500" preserveAspectRatio="xMidYMid meet" version="1.0"><defs><g/><clipPath id="410c58fe17"><path d="M 112 1.109375 L 198 1.109375 L 198 99 L 112 99 Z M 112 1.109375 " clip-rule="nonzero"/></clipPath><clipPath id="15d665d29c"><path d="M 75.675781 101 L 209 101 L 209 132 L 75.675781 132 Z M 75.675781 101 " clip-rule="nonzero"/></clipPath><clipPath id="6035e58c6c"><path d="M 211 102 L 265.46875 102 L 265.46875 141 L 211 141 Z M 211 102 " clip-rule="nonzero"/></clipPath><clipPath id="4c0a6c73e4"><path d="M 0.0390625 166 L 343 166 L 343 218 L 0.0390625 218 Z M 0.0390625 166 " clip-rule="nonzero"/></clipPath><clipPath id="ed7d6bfa1d"><rect x="0" width="343" y="0" height="52"/></clipPath><clipPath id="8b7be4cbbf"><path d="M 54 216 L 288 216 L 288 249.320312 L 54 249.320312 Z M 54 216 " clip-rule="nonzero"/></clipPath><clipPath id="b3d02ec57d"><rect x="0" width="234" y="0" height="34"/></clipPath><clipPath id="81e7b0d0eb"><rect x="0" width="343" y="0" height="250"/></clipPath></defs><g transform="matrix(1, 0, 0, 1, 17, 61)"><g clip-path="url(#81e7b0d0eb)"><path fill="#a46b40" d="M 176.902344 72.867188 L 177.292969 74.109375 C 177.414062 74.542969 177.570312 74.929688 177.742188 75.332031 L 178.207031 76.542969 C 178.363281 76.945312 178.5625 77.335938 178.71875 77.738281 L 179.261719 78.898438 C 180.796875 82 182.734375 84.839844 184.859375 87.476562 C 187 90.113281 189.324219 92.515625 191.773438 94.765625 C 194.226562 97.027344 196.785156 99.136719 199.433594 101.136719 C 197.417969 98.5 195.277344 95.957031 193.261719 93.382812 C 191.214844 90.808594 189.261719 88.234375 187.464844 85.539062 C 185.679688 82.871094 184.066406 80.109375 182.796875 77.226562 C 182.515625 76.496094 182.191406 75.785156 181.914062 75.054688 L 181.523438 73.9375 C 181.402344 73.566406 181.261719 73.195312 181.152344 72.820312 C 180.949219 72.078125 180.6875 71.332031 180.515625 70.574219 C 180.332031 69.8125 180.160156 69.054688 180.019531 68.246094 C 179.710938 66.695312 179.460938 65.066406 179.183594 63.441406 C 178.902344 61.8125 178.609375 60.136719 178.207031 58.460938 C 177.804688 56.789062 177.292969 55.113281 176.59375 53.46875 C 175.910156 51.824219 175.011719 50.289062 174.097656 48.894531 C 172.234375 46.058594 170.160156 43.53125 168.625 40.769531 C 167.847656 39.375 167.195312 37.929688 166.761719 36.394531 C 166.546875 35.636719 166.390625 34.847656 166.3125 34.039062 C 166.21875 33.25 166.234375 32.410156 166.3125 31.589844 C 165.722656 33.140625 165.492188 34.890625 165.644531 36.597656 C 165.707031 37.449219 165.847656 38.304688 166.050781 39.140625 C 166.25 39.976562 166.515625 40.785156 166.808594 41.605469 C 168.019531 44.847656 169.847656 47.699219 171.335938 50.523438 C 171.710938 51.222656 172.066406 51.933594 172.390625 52.632812 C 172.703125 53.328125 173.027344 54.042969 173.246094 54.773438 C 173.742188 56.214844 174.128906 57.71875 174.4375 59.253906 C 174.734375 60.804688 174.980469 62.386719 175.214844 64.015625 C 175.460938 65.640625 175.695312 67.300781 176.003906 68.960938 C 176.175781 69.796875 176.359375 70.636719 176.5625 71.488281 L 176.734375 72.125 C 176.78125 72.464844 176.855469 72.667969 176.902344 72.867188 Z M 176.902344 72.867188 " fill-opacity="1" fill-rule="nonzero"/><path fill="#a46b40" d="M 175.089844 94.128906 C 173.988281 92.21875 172.46875 90.59375 170.886719 89.148438 C 169.304688 87.722656 167.644531 86.484375 166.125 85.210938 C 165.367188 84.574219 164.621094 83.972656 163.941406 83.289062 C 163.242188 82.636719 162.589844 81.941406 161.941406 81.226562 C 159.367188 78.375 157.226562 75.054688 155.210938 71.582031 C 153.164062 68.109375 151.332031 64.417969 149.085938 60.882812 C 149.378906 62.960938 149.828125 65.007812 150.339844 67.007812 C 150.882812 69.023438 151.503906 71.007812 152.292969 72.976562 C 153.070312 74.945312 153.984375 76.851562 155.070312 78.714844 C 155.613281 79.644531 156.21875 80.527344 156.839844 81.429688 C 157.148438 81.863281 157.488281 82.296875 157.816406 82.730469 L 158.871094 83.972656 C 159.613281 84.761719 160.375 85.566406 161.210938 86.296875 L 161.816406 86.839844 C 162.015625 87.011719 162.25 87.195312 162.453125 87.351562 C 162.886719 87.691406 163.304688 88.019531 163.753906 88.3125 C 164.621094 88.917969 165.492188 89.507812 166.375 90.050781 L 167.660156 90.871094 C 168.097656 91.136719 168.515625 91.414062 168.917969 91.691406 C 170.5625 92.792969 172.128906 93.925781 173.476562 95.320312 C 174.855469 96.71875 175.972656 98.332031 176.6875 100.316406 C 176.78125 99.277344 176.671875 98.175781 176.390625 97.121094 C 176.113281 96.066406 175.648438 95.074219 175.089844 94.128906 Z M 175.089844 94.128906 " fill-opacity="1" fill-rule="nonzero"/><g clip-path="url(#410c58fe17)"><path fill="#a46b40" d="M 151.875 33.417969 C 151.316406 34.164062 150.742188 34.90625 150.140625 35.652344 C 148.914062 37.109375 147.566406 38.566406 146.246094 40.085938 C 144.929688 41.621094 143.609375 43.234375 142.480469 45.035156 C 141.90625 45.949219 141.410156 46.894531 140.960938 47.871094 C 140.742188 48.367188 140.554688 48.878906 140.371094 49.390625 C 140.183594 49.886719 140.058594 50.414062 139.890625 50.925781 C 139.316406 52.988281 139.035156 55.066406 138.882812 57.097656 C 138.726562 59.128906 138.695312 61.144531 138.632812 63.113281 C 138.570312 65.082031 138.507812 67.007812 138.292969 68.898438 C 138.074219 70.789062 137.71875 72.621094 137.128906 74.386719 C 136.539062 76.171875 135.703125 77.875 134.742188 79.503906 C 133.765625 81.132812 132.585938 82.683594 131.34375 84.140625 C 130.089844 85.597656 128.707031 86.964844 127.25 88.265625 C 125.792969 89.554688 124.226562 90.746094 122.644531 91.894531 C 121.046875 93.042969 119.40625 94.144531 117.746094 95.214844 C 116.101562 96.285156 114.394531 97.324219 112.722656 98.390625 C 114.519531 97.539062 116.289062 96.65625 118.054688 95.757812 C 119.839844 94.824219 121.574219 93.863281 123.28125 92.839844 C 126.691406 90.777344 129.980469 88.390625 132.832031 85.523438 C 135.671875 82.621094 138.121094 79.210938 139.671875 75.332031 C 140.449219 73.378906 140.960938 71.347656 141.269531 69.300781 C 141.578125 67.253906 141.75 65.238281 141.875 63.253906 C 142 61.269531 142.121094 59.300781 142.324219 57.40625 C 142.527344 55.515625 142.835938 53.65625 143.378906 51.917969 C 143.535156 51.484375 143.65625 51.050781 143.828125 50.632812 C 144.015625 50.226562 144.167969 49.792969 144.371094 49.390625 C 144.574219 49.003906 144.757812 48.601562 145.007812 48.195312 C 145.222656 47.808594 145.472656 47.421875 145.703125 47.035156 C 146.710938 45.515625 147.9375 44.070312 149.222656 42.613281 C 150.527344 41.171875 151.890625 39.746094 153.226562 38.179688 C 153.890625 37.417969 154.542969 36.597656 155.179688 35.777344 C 155.816406 34.9375 156.386719 34.070312 156.945312 33.1875 C 159.132812 29.667969 160.761719 25.960938 162.4375 22.410156 C 164.078125 18.875 165.832031 15.429688 168.097656 12.5 C 168.652344 11.757812 169.242188 11.058594 169.878906 10.40625 C 170.515625 9.742188 171.167969 9.121094 171.863281 8.578125 C 173.257812 7.460938 174.808594 6.5625 176.4375 5.910156 C 178.066406 5.273438 179.789062 4.949219 181.476562 4.980469 C 182.332031 5.011719 183.167969 5.136719 183.960938 5.351562 C 184.160156 5.382812 184.363281 5.460938 184.5625 5.539062 L 185.152344 5.738281 L 185.726562 6.003906 L 186.023438 6.128906 C 186.113281 6.160156 186.207031 6.234375 186.300781 6.28125 C 187.804688 7.105469 189.167969 8.25 190.300781 9.632812 C 191.449219 11.011719 192.410156 12.578125 193.125 14.269531 C 194.535156 17.617188 195.046875 21.464844 194.660156 25.152344 C 194.269531 28.859375 192.875 32.457031 190.519531 35.402344 C 189.945312 36.148438 189.292969 36.847656 188.613281 37.480469 C 187.929688 38.132812 187.183594 38.722656 186.410156 39.265625 C 184.859375 40.320312 183.089844 41.15625 181.261719 41.605469 C 180.347656 41.824219 179.402344 41.917969 178.484375 41.855469 C 177.554688 41.777344 176.65625 41.5 175.863281 40.988281 C 175.089844 40.476562 174.453125 39.699219 174.066406 38.832031 C 173.695312 37.960938 173.601562 36.921875 173.957031 35.992188 C 173.742188 36.441406 173.601562 36.921875 173.570312 37.433594 C 173.554688 37.929688 173.632812 38.457031 173.773438 38.941406 C 174.082031 39.917969 174.6875 40.800781 175.492188 41.484375 C 176.332031 42.148438 177.324219 42.535156 178.363281 42.722656 C 179.402344 42.910156 180.453125 42.894531 181.476562 42.722656 C 181.988281 42.644531 182.5 42.535156 182.996094 42.414062 C 183.496094 42.289062 183.976562 42.117188 184.457031 41.933594 C 185.417969 41.574219 186.347656 41.109375 187.261719 40.613281 C 188.175781 40.117188 189 39.496094 189.820312 38.847656 C 190.644531 38.195312 191.371094 37.464844 192.085938 36.707031 C 192.78125 35.945312 193.417969 35.109375 193.992188 34.242188 C 194.566406 33.371094 195.09375 32.457031 195.527344 31.496094 C 195.976562 30.550781 196.347656 29.574219 196.644531 28.566406 C 196.9375 27.558594 197.1875 26.550781 197.339844 25.511719 C 197.683594 23.433594 197.730469 21.324219 197.527344 19.246094 C 197.433594 18.191406 197.265625 17.167969 197.03125 16.128906 L 196.84375 15.355469 C 196.769531 15.089844 196.691406 14.84375 196.628906 14.59375 C 196.472656 14.082031 196.289062 13.585938 196.117188 13.089844 C 195.371094 11.089844 194.316406 9.214844 192.984375 7.492188 C 191.667969 5.769531 189.992188 4.28125 188.054688 3.148438 C 187.929688 3.074219 187.804688 2.996094 187.679688 2.949219 L 187.308594 2.761719 L 186.550781 2.390625 L 185.757812 2.09375 C 185.496094 1.988281 185.214844 1.894531 184.9375 1.816406 C 183.835938 1.476562 182.703125 1.320312 181.585938 1.242188 C 179.324219 1.132812 177.074219 1.539062 174.996094 2.28125 C 173.957031 2.652344 172.980469 3.117188 172.003906 3.660156 C 171.058594 4.203125 170.144531 4.808594 169.289062 5.476562 C 168.421875 6.144531 167.617188 6.886719 166.886719 7.648438 C 166.140625 8.40625 165.445312 9.230469 164.792969 10.035156 C 162.203125 13.367188 160.34375 17.058594 158.636719 20.6875 C 156.945312 24.300781 155.394531 27.867188 153.410156 31.09375 C 152.929688 31.882812 152.433594 32.675781 151.875 33.417969 Z M 151.875 33.417969 " fill-opacity="1" fill-rule="nonzero"/></g><g clip-path="url(#15d665d29c)"><path fill="#a46b40" d="M 195.292969 128.523438 C 193.804688 128.351562 192.332031 128.242188 190.84375 128.210938 C 194.378906 127.515625 197.914062 126.117188 200.863281 123.761719 C 202.320312 122.550781 203.667969 121.109375 204.644531 119.402344 C 204.910156 118.96875 205.109375 118.535156 205.3125 118.085938 C 205.5 117.621094 205.683594 117.15625 205.808594 116.660156 C 206.085938 115.699219 206.257812 114.691406 206.289062 113.699219 C 206.320312 112.6875 206.257812 111.679688 206.027344 110.671875 C 205.808594 109.664062 205.453125 108.703125 204.972656 107.773438 C 204.492188 106.84375 203.855469 105.992188 203.140625 105.230469 C 202.957031 105.042969 202.769531 104.859375 202.566406 104.671875 L 201.933594 104.175781 C 201.730469 104.003906 201.496094 103.882812 201.28125 103.726562 C 201.0625 103.601562 200.832031 103.449219 200.613281 103.324219 C 198.785156 102.316406 196.722656 101.867188 194.738281 101.742188 C 192.75 101.632812 190.828125 101.867188 188.953125 102.207031 C 187.089844 102.5625 185.292969 103.027344 183.539062 103.539062 L 180.949219 104.316406 C 180.097656 104.578125 179.246094 104.8125 178.390625 105.074219 C 174.964844 106.050781 171.523438 106.984375 168.066406 107.789062 C 164.621094 108.609375 161.132812 109.292969 157.644531 109.804688 C 155.90625 110.085938 154.15625 110.285156 152.402344 110.488281 C 150.636719 110.65625 148.898438 110.796875 147.132812 110.875 C 145.363281 110.96875 143.625 111 141.859375 110.96875 C 140.089844 110.953125 138.355469 110.859375 136.617188 110.71875 C 133.113281 110.457031 129.640625 109.929688 126.242188 109.167969 C 124.539062 108.78125 122.863281 108.300781 121.171875 107.773438 L 116.039062 106.128906 C 114.304688 105.570312 112.519531 105.089844 110.675781 104.703125 C 108.859375 104.316406 106.96875 104.050781 105.0625 104.050781 L 103.632812 104.050781 L 102.222656 104.160156 L 101.527344 104.222656 L 100.828125 104.332031 L 99.433594 104.546875 L 98.050781 104.859375 L 97.371094 105.011719 C 97.152344 105.074219 96.921875 105.136719 96.703125 105.214844 L 95.371094 105.601562 C 94.917969 105.757812 94.5 105.914062 94.066406 106.082031 L 93.414062 106.332031 C 93.199219 106.425781 92.980469 106.519531 92.78125 106.609375 L 91.523438 107.167969 C 91.121094 107.355469 90.703125 107.574219 90.285156 107.773438 C 89.878906 107.976562 89.460938 108.175781 89.058594 108.410156 L 87.847656 109.0625 C 87.445312 109.277344 87.074219 109.527344 86.65625 109.742188 C 85.863281 110.191406 85.121094 110.703125 84.359375 111.183594 C 81.335938 113.1875 78.484375 115.386719 75.675781 117.652344 C 77.210938 116.707031 78.714844 115.746094 80.28125 114.8125 C 81.042969 114.347656 81.816406 113.882812 82.609375 113.433594 C 83.382812 112.984375 84.15625 112.550781 84.964844 112.132812 C 88.113281 110.457031 91.335938 108.921875 94.71875 107.960938 L 95.972656 107.585938 L 97.261719 107.292969 L 97.898438 107.136719 L 98.546875 107.03125 L 99.835938 106.828125 L 101.121094 106.71875 L 101.773438 106.65625 L 102.425781 106.65625 L 103.710938 106.640625 L 105 106.71875 C 108.394531 106.9375 111.730469 107.976562 115.0625 109.167969 L 120.148438 111.03125 C 121.871094 111.636719 123.652344 112.191406 125.4375 112.660156 C 129.019531 113.605469 132.664062 114.238281 136.339844 114.582031 C 143.6875 115.308594 151.101562 114.9375 158.328125 113.835938 C 161.941406 113.277344 165.539062 112.550781 169.089844 111.695312 C 172.625 110.828125 176.128906 109.835938 179.585938 108.765625 C 180.453125 108.488281 181.308594 108.222656 182.175781 107.929688 L 184.734375 107.089844 C 186.425781 106.546875 188.085938 106.050781 189.742188 105.695312 C 191.417969 105.339844 193.078125 105.105469 194.675781 105.121094 C 196.289062 105.152344 197.824219 105.464844 199.1875 106.128906 C 199.359375 106.207031 199.527344 106.316406 199.683594 106.410156 C 199.855469 106.503906 200.023438 106.59375 200.164062 106.703125 L 200.613281 107.046875 C 200.769531 107.152344 200.894531 107.292969 201.046875 107.417969 C 201.589844 107.914062 202.070312 108.519531 202.457031 109.152344 C 202.832031 109.820312 203.140625 110.535156 203.34375 111.292969 C 203.542969 112.054688 203.652344 112.828125 203.683594 113.621094 C 203.792969 116.796875 202.101562 119.882812 199.621094 122.195312 C 198.984375 122.769531 198.335938 123.3125 197.636719 123.808594 C 196.9375 124.289062 196.195312 124.753906 195.433594 125.15625 C 194.660156 125.558594 193.882812 125.917969 193.0625 126.226562 C 192.238281 126.535156 191.417969 126.816406 190.566406 127.078125 C 189.710938 127.328125 188.859375 127.542969 187.992188 127.730469 C 187.121094 127.917969 186.253906 128.070312 185.355469 128.210938 C 184.472656 128.367188 183.570312 128.476562 182.6875 128.582031 C 181.804688 128.691406 180.90625 128.785156 180.003906 128.878906 C 180.59375 128.894531 181.214844 128.894531 181.804688 128.910156 C 184.035156 129.25 186.222656 129.484375 188.410156 129.746094 L 195.1875 130.523438 C 197.449219 130.785156 199.699219 131.019531 201.976562 131.25 C 204.257812 131.453125 206.539062 131.636719 208.863281 131.636719 C 206.691406 130.800781 204.476562 130.179688 202.226562 129.652344 C 199.855469 129.1875 197.589844 128.800781 195.292969 128.523438 Z M 195.292969 128.523438 " fill-opacity="1" fill-rule="nonzero"/></g><g clip-path="url(#6035e58c6c)"><path fill="#a46b40" d="M 264.996094 116.660156 C 264.78125 115.0625 264.4375 113.527344 263.941406 111.960938 C 263.429688 110.425781 262.734375 108.875 261.773438 107.480469 C 260.8125 106.066406 259.507812 104.796875 257.988281 103.882812 C 256.46875 102.953125 254.761719 102.46875 253.105469 102.253906 C 251.460938 102.035156 249.847656 102.066406 248.28125 102.191406 C 242.0625 102.765625 236.386719 104.71875 230.617188 105.570312 C 227.75 106.035156 224.835938 106.144531 221.917969 105.820312 C 220.476562 105.648438 219.003906 105.371094 217.59375 104.984375 C 216.167969 104.609375 214.769531 104.113281 213.390625 103.523438 C 214.648438 104.316406 216.011719 105.011719 217.390625 105.585938 C 218.789062 106.160156 220.246094 106.59375 221.734375 106.9375 C 224.695312 107.617188 227.796875 107.757812 230.835938 107.570312 C 233.875 107.386719 236.867188 106.890625 239.800781 106.425781 C 242.730469 105.960938 245.644531 105.511719 248.484375 105.402344 C 251.289062 105.292969 254.066406 105.617188 256.082031 106.9375 C 258.128906 108.253906 259.460938 110.550781 260.238281 113.125 C 260.609375 114.410156 260.902344 115.789062 261.074219 117.15625 C 261.246094 118.535156 261.277344 119.882812 261.183594 121.21875 C 261.074219 122.550781 260.839844 123.871094 260.4375 125.125 C 260.050781 126.367188 259.492188 127.574219 258.765625 128.660156 C 257.351562 130.863281 255.382812 132.722656 253.058594 133.871094 C 250.714844 135.082031 247.972656 135.6875 245.148438 136.027344 C 243.738281 136.199219 242.296875 136.304688 240.851562 136.382812 C 239.410156 136.445312 237.953125 136.476562 236.527344 136.445312 C 233.660156 136.367188 230.789062 136.074219 228.089844 135.34375 C 225.363281 134.648438 222.773438 133.53125 220.539062 131.855469 C 219.421875 131.019531 218.382812 130.074219 217.453125 129.019531 C 216.523438 127.964844 215.71875 126.816406 215.082031 125.542969 C 214.429688 124.304688 213.917969 122.96875 213.59375 121.589844 L 213.46875 121.078125 L 213.390625 120.566406 C 213.328125 120.210938 213.28125 119.867188 213.265625 119.511719 C 213.203125 118.785156 213.175781 118.101562 213.265625 117.417969 C 213.359375 116.753906 213.5625 116.101562 213.933594 115.558594 C 214.304688 115.015625 214.878906 114.628906 215.53125 114.410156 C 216.183594 114.164062 216.925781 114.070312 217.640625 114.054688 C 218.382812 114.039062 219.128906 114.085938 219.871094 114.148438 C 219.144531 113.960938 218.414062 113.804688 217.671875 113.710938 C 216.910156 113.636719 216.152344 113.621094 215.375 113.789062 C 214.601562 113.960938 213.839844 114.363281 213.265625 114.984375 C 212.691406 115.621094 212.351562 116.394531 212.152344 117.171875 C 212.058594 117.558594 211.980469 117.960938 211.949219 118.363281 C 211.886719 118.753906 211.917969 119.140625 211.886719 119.527344 C 211.871094 119.914062 211.886719 120.304688 211.917969 120.691406 L 211.949219 121.28125 L 212.027344 121.855469 C 212.226562 123.40625 212.664062 124.941406 213.25 126.382812 C 214.476562 129.296875 216.445312 131.871094 218.847656 133.933594 C 220.058594 134.972656 221.40625 135.839844 222.804688 136.585938 C 224.214844 137.328125 225.671875 137.917969 227.175781 138.398438 C 228.679688 138.863281 230.199219 139.238281 231.734375 139.5 C 233.269531 139.765625 234.820312 139.902344 236.355469 140.011719 C 237.890625 140.105469 239.441406 140.136719 240.960938 140.105469 C 242.480469 140.074219 244.015625 139.996094 245.566406 139.855469 C 247.117188 139.703125 248.683594 139.46875 250.234375 139.097656 C 251.011719 138.910156 251.785156 138.695312 252.578125 138.414062 C 253.351562 138.152344 254.113281 137.839844 254.855469 137.46875 C 257.878906 136.011719 260.4375 133.65625 262.222656 130.832031 C 263.105469 129.421875 263.820312 127.902344 264.316406 126.304688 C 264.8125 124.707031 265.089844 123.078125 265.199219 121.449219 C 265.308594 119.867188 265.230469 118.257812 264.996094 116.660156 Z M 264.996094 116.660156 " fill-opacity="1" fill-rule="nonzero"/></g><path fill="#a46b40" d="M 204.445312 141.300781 C 203.421875 141.546875 202.367188 141.59375 201.328125 141.5 C 199.25 141.316406 197.28125 140.570312 195.292969 139.734375 C 194.285156 139.328125 193.292969 138.878906 192.238281 138.492188 C 191.726562 138.289062 191.171875 138.121094 190.628906 137.949219 C 190.347656 137.871094 190.085938 137.78125 189.804688 137.703125 L 188.96875 137.5 C 186.765625 136.957031 184.488281 136.664062 182.191406 136.617188 C 179.914062 136.554688 177.648438 136.710938 175.414062 137.003906 C 173.167969 137.28125 170.980469 137.75 168.808594 138.292969 C 166.636719 138.832031 164.53125 139.515625 162.527344 140.011719 C 160.511719 140.523438 158.558594 140.894531 156.652344 140.851562 C 155.707031 140.835938 154.777344 140.726562 153.921875 140.476562 C 153.488281 140.367188 153.070312 140.214844 152.683594 140.027344 C 152.292969 139.855469 151.9375 139.640625 151.566406 139.421875 C 150.867188 138.941406 150.246094 138.351562 149.796875 137.6875 C 149.332031 137.019531 149.054688 136.273438 148.945312 135.53125 C 148.742188 134.027344 149.347656 132.289062 150.464844 130.863281 C 151.582031 129.421875 153.210938 128.210938 154.992188 127.09375 C 162.265625 122.582031 170.128906 118.9375 178.347656 115.960938 C 169.675781 117.28125 161.242188 120.195312 153.378906 124.304688 C 151.394531 125.359375 149.332031 126.628906 147.6875 128.566406 C 146.851562 129.53125 146.167969 130.628906 145.6875 131.886719 C 145.207031 133.128906 144.960938 134.523438 145.097656 135.949219 C 145.222656 137.375 145.75 138.726562 146.496094 139.855469 C 147.238281 141.003906 148.199219 141.964844 149.269531 142.757812 C 151.503906 144.308594 154.09375 144.898438 156.558594 144.957031 C 157.785156 144.972656 159.007812 144.882812 160.171875 144.695312 C 161.335938 144.507812 162.46875 144.246094 163.566406 143.949219 C 164.667969 143.65625 165.722656 143.316406 166.761719 142.988281 C 167.800781 142.648438 168.808594 142.355469 169.816406 142.058594 C 173.894531 140.894531 178.035156 140.058594 182.207031 139.871094 C 184.285156 139.78125 186.378906 139.871094 188.425781 140.183594 L 189.199219 140.292969 C 189.464844 140.324219 189.695312 140.398438 189.960938 140.445312 L 190.71875 140.617188 L 191.480469 140.804688 C 192.503906 141.066406 193.542969 141.375 194.597656 141.6875 C 195.652344 141.980469 196.753906 142.277344 197.851562 142.460938 C 198.96875 142.648438 200.132812 142.757812 201.265625 142.679688 C 202.398438 142.601562 203.527344 142.371094 204.582031 141.917969 C 205.09375 141.703125 205.605469 141.421875 206.039062 141.082031 C 206.492188 140.742188 206.894531 140.351562 207.234375 139.933594 C 206.800781 140.292969 206.351562 140.570312 205.886719 140.804688 C 205.46875 141.003906 204.957031 141.175781 204.445312 141.300781 Z M 204.445312 141.300781 " fill-opacity="1" fill-rule="nonzero"/><path fill="#a46b40" d="M 92.8125 102.828125 C 93.261719 102.65625 93.726562 102.46875 94.253906 102.300781 L 94.316406 102.285156 L 95.648438 101.898438 C 95.742188 101.867188 95.851562 101.835938 95.957031 101.804688 C 95.710938 99.308594 95.570312 96.765625 95.570312 94.207031 C 95.570312 58.324219 120.925781 28.253906 154.667969 20.984375 C 154.683594 20.953125 154.699219 20.90625 154.714844 20.875 C 154.960938 20.332031 155.226562 19.773438 155.488281 19.214844 C 155.832031 18.5 156.171875 17.773438 156.542969 17.042969 C 150.867188 18.066406 145.316406 19.710938 139.96875 21.976562 C 130.617188 25.898438 122.226562 31.542969 115.03125 38.753906 C 107.835938 45.964844 102.175781 54.335938 98.238281 63.671875 C 94.144531 73.332031 92.082031 83.597656 92.082031 94.191406 C 92.082031 97.136719 92.238281 100.050781 92.5625 102.9375 Z M 92.8125 102.828125 " fill-opacity="1" fill-rule="nonzero"/><path fill="#a46b40" d="M 245.367188 94.191406 C 245.367188 95.816406 245.320312 97.445312 245.210938 99.042969 C 246.109375 98.902344 247.039062 98.796875 247.972656 98.703125 L 248.003906 98.703125 C 248.25 98.6875 248.5 98.671875 248.746094 98.65625 C 248.824219 97.183594 248.871094 95.695312 248.871094 94.191406 C 248.871094 83.613281 246.792969 73.332031 242.714844 63.671875 C 238.761719 54.335938 233.117188 45.949219 225.921875 38.753906 C 218.773438 31.605469 210.460938 25.976562 201.203125 22.039062 C 201.1875 23.277344 201.09375 24.519531 200.910156 25.757812 C 227.066406 37.433594 245.367188 63.71875 245.367188 94.191406 Z M 245.367188 94.191406 " fill-opacity="1" fill-rule="nonzero"/><g clip-path="url(#4c0a6c73e4)"><g transform="matrix(1, 0, 0, 1, 0.000000000000003553, 166)"><g clip-path="url(#ed7d6bfa1d)"><g fill="#a46b40" fill-opacity="1"><g transform="translate(0.528286, 37.208319)"><g><path d="M 10.140625 -12.21875 L 10.140625 -2.75 C 10.140625 -2.09375 10.378906 -1.53125 10.859375 -1.0625 C 11.335938 -0.601562 11.90625 -0.375 12.5625 -0.375 L 13 -0.375 L 13.046875 0 L 1.578125 0 L 1.578125 -0.375 L 2.078125 -0.375 C 2.722656 -0.375 3.28125 -0.601562 3.75 -1.0625 C 4.21875 -1.53125 4.460938 -2.09375 4.484375 -2.75 L 4.484375 -23.75 C 4.429688 -24.382812 4.171875 -24.921875 3.703125 -25.359375 C 3.242188 -25.796875 2.703125 -26.015625 2.078125 -26.015625 L 1.578125 -26.015625 L 1.578125 -26.390625 L 16.03125 -26.390625 C 17.132812 -26.390625 18.097656 -26.476562 18.921875 -26.65625 C 19.753906 -26.832031 20.296875 -26.972656 20.546875 -27.078125 L 20.546875 -20.703125 L 20.171875 -20.703125 L 20.171875 -21.078125 C 20.171875 -22.585938 19.601562 -23.65625 18.46875 -24.28125 C 17.945312 -24.582031 17.320312 -24.742188 16.59375 -24.765625 L 10.140625 -24.765625 L 10.140625 -13.796875 L 21 -13.796875 C 21.925781 -13.828125 22.691406 -14.148438 23.296875 -14.765625 C 23.898438 -15.378906 24.203125 -16.140625 24.203125 -17.046875 L 24.203125 -17.375 L 24.578125 -17.375 L 24.578125 -8.671875 L 24.203125 -8.671875 L 24.203125 -8.96875 C 24.203125 -9.90625 23.90625 -10.671875 23.3125 -11.265625 C 22.726562 -11.867188 21.984375 -12.1875 21.078125 -12.21875 Z M 10.140625 -12.21875 "/></g></g></g><g fill="#a46b40" fill-opacity="1"><g transform="translate(25.295067, 37.208319)"><g><path d="M 12.921875 -28.734375 L 12.65625 -29 C 13.738281 -30.851562 15.550781 -32.910156 18.09375 -35.171875 C 19.300781 -34.546875 20.15625 -33.53125 20.65625 -32.125 C 18.0625 -30.488281 15.484375 -29.359375 12.921875 -28.734375 Z M 27.8125 -0.375 L 28.15625 -0.375 L 28.15625 0 L 16.125 0 L 16.125 -0.375 L 16.46875 -0.375 C 17.019531 -0.375 17.425781 -0.539062 17.6875 -0.875 C 17.957031 -1.21875 18.09375 -1.539062 18.09375 -1.84375 C 18.09375 -2.144531 18.03125 -2.445312 17.90625 -2.75 L 16.0625 -7.390625 L 7.234375 -7.390625 L 5.265625 -2.75 C 5.140625 -2.425781 5.078125 -2.117188 5.078125 -1.828125 C 5.078125 -1.535156 5.207031 -1.21875 5.46875 -0.875 C 5.738281 -0.539062 6.164062 -0.375 6.75 -0.375 L 7.046875 -0.375 L 7.046875 0 L -1.03125 0 L -1.03125 -0.375 L -0.6875 -0.375 C -0.101562 -0.375 0.472656 -0.550781 1.046875 -0.90625 C 1.628906 -1.257812 2.109375 -1.785156 2.484375 -2.484375 L 11.1875 -22.203125 C 12.375 -24.691406 13.003906 -26.335938 13.078125 -27.140625 L 13.421875 -27.140625 L 24.609375 -2.5625 C 24.984375 -1.832031 25.457031 -1.285156 26.03125 -0.921875 C 26.613281 -0.554688 27.207031 -0.375 27.8125 -0.375 Z M 7.875 -8.96875 L 15.421875 -8.96875 L 11.75 -18.25 Z M 7.875 -8.96875 "/></g></g></g><g fill="#a46b40" fill-opacity="1"><g transform="translate(52.285952, 37.208319)"><g><path d="M 15.421875 -24.84375 L 15.421875 -2.71875 C 15.441406 -2.0625 15.6875 -1.503906 16.15625 -1.046875 C 16.625 -0.597656 17.179688 -0.375 17.828125 -0.375 L 18.28125 -0.375 L 18.328125 0 L 6.859375 0 L 6.859375 -0.375 L 7.359375 -0.375 C 7.984375 -0.375 8.523438 -0.597656 8.984375 -1.046875 C 9.453125 -1.503906 9.710938 -2.046875 9.765625 -2.671875 L 9.765625 -24.84375 L 4.671875 -24.84375 C 3.515625 -24.820312 2.597656 -24.457031 1.921875 -23.75 C 1.242188 -23.050781 0.90625 -22.132812 0.90625 -21 L 0.90625 -20.546875 L 0.53125 -20.546875 L 0.53125 -27.109375 C 0.882812 -26.953125 1.519531 -26.800781 2.4375 -26.65625 C 3.351562 -26.507812 4.203125 -26.4375 4.984375 -26.4375 L 20.171875 -26.4375 C 21.398438 -26.457031 22.40625 -26.554688 23.1875 -26.734375 C 23.96875 -26.910156 24.445312 -27.035156 24.625 -27.109375 L 24.625 -20.546875 L 24.25 -20.546875 L 24.25 -21 C 24.25 -22.132812 23.90625 -23.050781 23.21875 -23.75 C 22.539062 -24.457031 21.625 -24.820312 20.46875 -24.84375 Z M 15.421875 -24.84375 "/></g></g></g><g fill="#a46b40" fill-opacity="1"><g transform="translate(77.391995, 37.208319)"><g><path d="M 2.078125 -0.375 C 2.722656 -0.375 3.28125 -0.601562 3.75 -1.0625 C 4.21875 -1.53125 4.460938 -2.09375 4.484375 -2.75 L 4.484375 -23.671875 C 4.460938 -24.328125 4.21875 -24.878906 3.75 -25.328125 C 3.28125 -25.785156 2.722656 -26.015625 2.078125 -26.015625 L 1.578125 -26.015625 L 1.578125 -26.390625 L 13.046875 -26.390625 L 13 -26.015625 L 12.5625 -26.015625 C 11.90625 -26.015625 11.335938 -25.785156 10.859375 -25.328125 C 10.378906 -24.878906 10.140625 -24.328125 10.140625 -23.671875 L 10.140625 -2.75 C 10.140625 -2.09375 10.378906 -1.53125 10.859375 -1.0625 C 11.335938 -0.601562 11.90625 -0.375 12.5625 -0.375 L 13 -0.375 L 13.046875 0 L 1.578125 0 L 1.578125 -0.375 Z M 2.078125 -0.375 "/></g></g></g><g fill="#a46b40" fill-opacity="1"><g transform="translate(91.942947, 37.208319)"><g><path d="M 35.703125 -0.375 L 36.3125 -0.375 L 36.3125 0 L 25 0 L 25 -0.34375 L 25.5625 -0.34375 C 25.988281 -0.34375 26.351562 -0.507812 26.65625 -0.84375 C 26.957031 -1.1875 27.082031 -1.554688 27.03125 -1.953125 L 25.5625 -15.640625 L 18.46875 -3.4375 C 17.539062 -1.875 17.066406 -0.476562 17.046875 0.75 L 16.671875 0.75 L 6.96875 -15.53125 L 5.5 -1.953125 C 5.445312 -1.554688 5.570312 -1.1875 5.875 -0.84375 C 6.175781 -0.507812 6.539062 -0.34375 6.96875 -0.34375 L 7.546875 -0.34375 L 7.546875 0 L -0.34375 0 L -0.34375 -0.375 L 0.265625 -0.375 C 0.960938 -0.375 1.566406 -0.585938 2.078125 -1.015625 C 2.597656 -1.441406 2.910156 -2.019531 3.015625 -2.75 L 6.140625 -26.921875 L 6.484375 -26.921875 L 18.171875 -7.6875 L 29.40625 -26.921875 L 29.75 -26.921875 L 32.953125 -2.75 C 33.078125 -2.019531 33.394531 -1.441406 33.90625 -1.015625 C 34.425781 -0.585938 35.023438 -0.375 35.703125 -0.375 Z M 35.703125 -0.375 "/></g></g></g><g fill="#a46b40" fill-opacity="1"><g transform="translate(127.867964, 37.208319)"><g><path d="M 27.8125 -0.375 L 28.15625 -0.375 L 28.15625 0 L 16.125 0 L 16.125 -0.375 L 16.46875 -0.375 C 17.019531 -0.375 17.425781 -0.539062 17.6875 -0.875 C 17.957031 -1.21875 18.09375 -1.539062 18.09375 -1.84375 C 18.09375 -2.144531 18.03125 -2.445312 17.90625 -2.75 L 16.0625 -7.390625 L 7.234375 -7.390625 L 5.265625 -2.75 C 5.140625 -2.425781 5.078125 -2.117188 5.078125 -1.828125 C 5.078125 -1.535156 5.207031 -1.21875 5.46875 -0.875 C 5.738281 -0.539062 6.164062 -0.375 6.75 -0.375 L 7.046875 -0.375 L 7.046875 0 L -1.03125 0 L -1.03125 -0.375 L -0.6875 -0.375 C -0.101562 -0.375 0.472656 -0.550781 1.046875 -0.90625 C 1.628906 -1.257812 2.109375 -1.785156 2.484375 -2.484375 L 11.1875 -22.203125 C 12.375 -24.691406 13.003906 -26.335938 13.078125 -27.140625 L 13.421875 -27.140625 L 24.609375 -2.5625 C 24.984375 -1.832031 25.457031 -1.285156 26.03125 -0.921875 C 26.613281 -0.554688 27.207031 -0.375 27.8125 -0.375 Z M 7.875 -8.96875 L 15.421875 -8.96875 L 11.75 -18.25 Z M 7.875 -8.96875 "/></g></g></g><g fill="#a46b40" fill-opacity="1"><g transform="translate(154.858848, 37.208319)"><g/></g></g><g fill="#a46b40" fill-opacity="1"><g transform="translate(164.283042, 37.208319)"><g><path d="M 30.46875 -14.734375 C 30.539062 -13.984375 30.578125 -13.035156 30.578125 -11.890625 C 30.578125 -10.753906 30.347656 -9.359375 29.890625 -7.703125 C 29.441406 -6.054688 28.628906 -4.609375 27.453125 -3.359375 C 25.035156 -0.765625 21.71875 0.53125 17.5 0.53125 C 12.363281 0.53125 8.3125 -0.726562 5.34375 -3.25 C 2.382812 -5.78125 0.90625 -9.085938 0.90625 -13.171875 C 0.90625 -17.253906 2.40625 -20.566406 5.40625 -23.109375 C 8.414062 -25.648438 12.382812 -26.921875 17.3125 -26.921875 C 19.195312 -26.921875 20.992188 -26.726562 22.703125 -26.34375 C 24.410156 -25.96875 25.828125 -25.484375 26.953125 -24.890625 L 27.03125 -18.40625 L 26.734375 -18.40625 C 26.304688 -20.007812 25.585938 -21.351562 24.578125 -22.4375 C 22.773438 -24.375 20.335938 -25.34375 17.265625 -25.34375 C 14.203125 -25.34375 11.734375 -24.25 9.859375 -22.0625 C 7.984375 -19.875 7.046875 -16.972656 7.046875 -13.359375 C 7.046875 -9.753906 8.019531 -6.820312 9.96875 -4.5625 C 11.914062 -2.300781 14.597656 -1.132812 18.015625 -1.0625 C 21.710938 -1.0625 24.65625 -2.238281 26.84375 -4.59375 C 29.03125 -6.957031 30.125 -10.164062 30.125 -14.21875 C 30.125 -14.394531 30.125 -14.566406 30.125 -14.734375 Z M 30.46875 -14.734375 "/></g></g></g><g fill="#a46b40" fill-opacity="1"><g transform="translate(195.420575, 37.208319)"><g><path d="M 27.8125 -0.375 L 28.15625 -0.375 L 28.15625 0 L 16.125 0 L 16.125 -0.375 L 16.46875 -0.375 C 17.019531 -0.375 17.425781 -0.539062 17.6875 -0.875 C 17.957031 -1.21875 18.09375 -1.539062 18.09375 -1.84375 C 18.09375 -2.144531 18.03125 -2.445312 17.90625 -2.75 L 16.0625 -7.390625 L 7.234375 -7.390625 L 5.265625 -2.75 C 5.140625 -2.425781 5.078125 -2.117188 5.078125 -1.828125 C 5.078125 -1.535156 5.207031 -1.21875 5.46875 -0.875 C 5.738281 -0.539062 6.164062 -0.375 6.75 -0.375 L 7.046875 -0.375 L 7.046875 0 L -1.03125 0 L -1.03125 -0.375 L -0.6875 -0.375 C -0.101562 -0.375 0.472656 -0.550781 1.046875 -0.90625 C 1.628906 -1.257812 2.109375 -1.785156 2.484375 -2.484375 L 11.1875 -22.203125 C 12.375 -24.691406 13.003906 -26.335938 13.078125 -27.140625 L 13.421875 -27.140625 L 24.609375 -2.5625 C 24.984375 -1.832031 25.457031 -1.285156 26.03125 -0.921875 C 26.613281 -0.554688 27.207031 -0.375 27.8125 -0.375 Z M 7.875 -8.96875 L 15.421875 -8.96875 L 11.75 -18.25 Z M 7.875 -8.96875 "/></g></g></g><g fill="#a46b40" fill-opacity="1"><g transform="translate(222.411459, 37.208319)"><g><path d="M 35.703125 -0.375 L 36.3125 -0.375 L 36.3125 0 L 25 0 L 25 -0.34375 L 25.5625 -0.34375 C 25.988281 -0.34375 26.351562 -0.507812 26.65625 -0.84375 C 26.957031 -1.1875 27.082031 -1.554688 27.03125 -1.953125 L 25.5625 -15.640625 L 18.46875 -3.4375 C 17.539062 -1.875 17.066406 -0.476562 17.046875 0.75 L 16.671875 0.75 L 6.96875 -15.53125 L 5.5 -1.953125 C 5.445312 -1.554688 5.570312 -1.1875 5.875 -0.84375 C 6.175781 -0.507812 6.539062 -0.34375 6.96875 -0.34375 L 7.546875 -0.34375 L 7.546875 0 L -0.34375 0 L -0.34375 -0.375 L 0.265625 -0.375 C 0.960938 -0.375 1.566406 -0.585938 2.078125 -1.015625 C 2.597656 -1.441406 2.910156 -2.019531 3.015625 -2.75 L 6.140625 -26.921875 L 6.484375 -26.921875 L 18.171875 -7.6875 L 29.40625 -26.921875 L 29.75 -26.921875 L 32.953125 -2.75 C 33.078125 -2.019531 33.394531 -1.441406 33.90625 -1.015625 C 34.425781 -0.585938 35.023438 -0.375 35.703125 -0.375 Z M 35.703125 -0.375 "/></g></g></g><g fill="#a46b40" fill-opacity="1"><g transform="translate(258.336461, 37.208319)"><g><path d="M 27.8125 -0.375 L 28.15625 -0.375 L 28.15625 0 L 16.125 0 L 16.125 -0.375 L 16.46875 -0.375 C 17.019531 -0.375 17.425781 -0.539062 17.6875 -0.875 C 17.957031 -1.21875 18.09375 -1.539062 18.09375 -1.84375 C 18.09375 -2.144531 18.03125 -2.445312 17.90625 -2.75 L 16.0625 -7.390625 L 7.234375 -7.390625 L 5.265625 -2.75 C 5.140625 -2.425781 5.078125 -2.117188 5.078125 -1.828125 C 5.078125 -1.535156 5.207031 -1.21875 5.46875 -0.875 C 5.738281 -0.539062 6.164062 -0.375 6.75 -0.375 L 7.046875 -0.375 L 7.046875 0 L -1.03125 0 L -1.03125 -0.375 L -0.6875 -0.375 C -0.101562 -0.375 0.472656 -0.550781 1.046875 -0.90625 C 1.628906 -1.257812 2.109375 -1.785156 2.484375 -2.484375 L 11.1875 -22.203125 C 12.375 -24.691406 13.003906 -26.335938 13.078125 -27.140625 L 13.421875 -27.140625 L 24.609375 -2.5625 C 24.984375 -1.832031 25.457031 -1.285156 26.03125 -0.921875 C 26.613281 -0.554688 27.207031 -0.375 27.8125 -0.375 Z M 7.875 -8.96875 L 15.421875 -8.96875 L 11.75 -18.25 Z M 7.875 -8.96875 "/></g></g></g><g fill="#a46b40" fill-opacity="1"><g transform="translate(285.327359, 37.208319)"><g><path d="M 11.984375 -24.734375 L 10.375 -24.734375 C 10.320312 -24.734375 10.28125 -24.734375 10.25 -24.734375 L 10.25 -2.75 C 10.28125 -1.820312 10.6875 -1.128906 11.46875 -0.671875 C 11.84375 -0.472656 12.242188 -0.375 12.671875 -0.375 L 13.15625 -0.375 L 13.15625 0 L 1.703125 0 L 1.703125 -0.375 L 2.1875 -0.375 C 3.09375 -0.375 3.785156 -0.765625 4.265625 -1.546875 C 4.460938 -1.898438 4.570312 -2.289062 4.59375 -2.71875 L 4.59375 -23.640625 C 4.570312 -24.296875 4.328125 -24.851562 3.859375 -25.3125 C 3.398438 -25.78125 2.84375 -26.015625 2.1875 -26.015625 L 1.703125 -26.015625 L 1.703125 -26.390625 L 14.625 -26.390625 C 17.0625 -26.390625 19.125 -25.863281 20.8125 -24.8125 C 21.664062 -24.28125 22.34375 -23.539062 22.84375 -22.59375 C 23.351562 -21.65625 23.609375 -20.585938 23.609375 -19.390625 C 23.609375 -18.203125 23.398438 -17.101562 22.984375 -16.09375 C 22.566406 -15.09375 21.875 -14.210938 20.90625 -13.453125 C 19.9375 -12.703125 18.773438 -12.253906 17.421875 -12.109375 C 18.878906 -11.628906 20.160156 -10.519531 21.265625 -8.78125 C 23.984375 -4.4375 25.992188 -1.847656 27.296875 -1.015625 C 27.953125 -0.617188 28.769531 -0.40625 29.75 -0.375 L 29.75 0 L 26.046875 0 C 23.910156 0 22.125 -0.289062 20.6875 -0.875 C 19.257812 -1.46875 18.09375 -2.484375 17.1875 -3.921875 C 16.738281 -4.648438 16.160156 -5.75 15.453125 -7.21875 C 14.753906 -8.6875 14.289062 -9.738281 14.0625 -10.375 C 13.382812 -11.875 12.53125 -12.710938 11.5 -12.890625 L 11.5 -13.265625 L 12.671875 -13.265625 C 13.796875 -13.265625 14.789062 -13.601562 15.65625 -14.28125 C 16.53125 -14.96875 17.117188 -16.078125 17.421875 -17.609375 C 17.515625 -18.140625 17.5625 -18.550781 17.5625 -18.84375 C 17.5625 -20.90625 17.144531 -22.394531 16.3125 -23.3125 C 15.488281 -24.238281 14.425781 -24.710938 13.125 -24.734375 C 12.875 -24.734375 12.492188 -24.734375 11.984375 -24.734375 Z M 11.984375 -24.734375 "/></g></g></g><g fill="#a46b40" fill-opacity="1"><g transform="translate(313.449168, 37.208319)"><g><path d="M 12.921875 -28.734375 L 12.65625 -29 C 13.738281 -30.851562 15.550781 -32.910156 18.09375 -35.171875 C 19.300781 -34.546875 20.15625 -33.53125 20.65625 -32.125 C 18.0625 -30.488281 15.484375 -29.359375 12.921875 -28.734375 Z M 27.8125 -0.375 L 28.15625 -0.375 L 28.15625 0 L 16.125 0 L 16.125 -0.375 L 16.46875 -0.375 C 17.019531 -0.375 17.425781 -0.539062 17.6875 -0.875 C 17.957031 -1.21875 18.09375 -1.539062 18.09375 -1.84375 C 18.09375 -2.144531 18.03125 -2.445312 17.90625 -2.75 L 16.0625 -7.390625 L 7.234375 -7.390625 L 5.265625 -2.75 C 5.140625 -2.425781 5.078125 -2.117188 5.078125 -1.828125 C 5.078125 -1.535156 5.207031 -1.21875 5.46875 -0.875 C 5.738281 -0.539062 6.164062 -0.375 6.75 -0.375 L 7.046875 -0.375 L 7.046875 0 L -1.03125 0 L -1.03125 -0.375 L -0.6875 -0.375 C -0.101562 -0.375 0.472656 -0.550781 1.046875 -0.90625 C 1.628906 -1.257812 2.109375 -1.785156 2.484375 -2.484375 L 11.1875 -22.203125 C 12.375 -24.691406 13.003906 -26.335938 13.078125 -27.140625 L 13.421875 -27.140625 L 24.609375 -2.5625 C 24.984375 -1.832031 25.457031 -1.285156 26.03125 -0.921875 C 26.613281 -0.554688 27.207031 -0.375 27.8125 -0.375 Z M 7.875 -8.96875 L 15.421875 -8.96875 L 11.75 -18.25 Z M 7.875 -8.96875 "/></g></g></g></g></g></g><g clip-path="url(#8b7be4cbbf)"><g transform="matrix(1, 0, 0, 1, 54, 216)"><g clip-path="url(#b3d02ec57d)"><g fill="#a46b40" fill-opacity="1"><g transform="translate(0.718911, 26.183017)"><g><path d="M 22.71875 -20.734375 L 22.71875 0 L 20.359375 0 L 20.359375 -17.171875 L 12.6875 -7.296875 L 4.890625 -17.171875 L 4.890625 0 L 2.53125 0 L 2.53125 -20.734375 L 5.265625 -20.734375 L 12.6875 -10.90625 L 19.984375 -20.734375 Z M 22.71875 -20.734375 "/></g></g></g><g fill="#a46b40" fill-opacity="1"><g transform="translate(25.970675, 26.183017)"><g><path d="M 14.25 -2.5 C 13 -0.664062 11.128906 0.25 8.640625 0.25 C 6.390625 0.25 4.554688 -0.53125 3.140625 -2.09375 C 1.753906 -3.644531 1.0625 -5.554688 1.0625 -7.828125 C 1.0625 -10.109375 1.753906 -12.019531 3.140625 -13.5625 C 4.554688 -15.132812 6.441406 -15.921875 8.796875 -15.921875 C 11.160156 -15.921875 12.976562 -14.988281 14.25 -13.125 L 14.25 -15.671875 L 16.609375 -15.671875 L 16.609375 0 L 14.25 0 Z M 8.953125 -1.875 C 10.648438 -1.875 11.988281 -2.460938 12.96875 -3.640625 C 13.90625 -4.742188 14.375 -6.140625 14.375 -7.828125 C 14.375 -9.523438 13.90625 -10.925781 12.96875 -12.03125 C 11.988281 -13.195312 10.648438 -13.78125 8.953125 -13.78125 C 7.285156 -13.78125 5.929688 -13.195312 4.890625 -12.03125 C 3.910156 -10.925781 3.421875 -9.523438 3.421875 -7.828125 C 3.421875 -6.140625 3.910156 -4.742188 4.890625 -3.640625 C 5.929688 -2.460938 7.285156 -1.875 8.953125 -1.875 Z M 8.953125 -1.875 "/></g></g></g><g fill="#a46b40" fill-opacity="1"><g transform="translate(44.611875, 26.183017)"><g><path d="M 11.25 -11.46875 C 11.039062 -13.09375 9.726562 -13.90625 7.3125 -13.90625 C 4.90625 -13.90625 3.703125 -13.15625 3.703125 -11.65625 C 3.703125 -11.03125 3.957031 -10.554688 4.46875 -10.234375 C 4.976562 -9.910156 5.617188 -9.640625 6.390625 -9.421875 C 7.160156 -9.210938 8 -9.019531 8.90625 -8.84375 C 9.820312 -8.664062 10.664062 -8.414062 11.4375 -8.09375 C 12.207031 -7.769531 12.847656 -7.328125 13.359375 -6.765625 C 13.867188 -6.203125 14.125 -5.429688 14.125 -4.453125 C 14.125 -2.921875 13.550781 -1.753906 12.40625 -0.953125 C 11.257812 -0.148438 9.703125 0.25 7.734375 0.25 C 5.648438 0.25 3.988281 -0.269531 2.75 -1.3125 C 1.625 -2.226562 1.019531 -3.429688 0.9375 -4.921875 L 3.390625 -4.921875 C 3.535156 -3.472656 4.347656 -2.5 5.828125 -2 C 6.367188 -1.832031 6.90625 -1.75 7.4375 -1.75 C 7.96875 -1.75 8.460938 -1.78125 8.921875 -1.84375 C 9.390625 -1.90625 9.84375 -2.019531 10.28125 -2.1875 C 11.28125 -2.582031 11.78125 -3.265625 11.78125 -4.234375 C 11.78125 -4.878906 11.523438 -5.375 11.015625 -5.71875 C 10.503906 -6.0625 9.859375 -6.34375 9.078125 -6.5625 C 8.304688 -6.78125 7.46875 -6.976562 6.5625 -7.15625 C 5.65625 -7.332031 4.8125 -7.578125 4.03125 -7.890625 C 3.257812 -8.203125 2.617188 -8.628906 2.109375 -9.171875 C 1.597656 -9.722656 1.34375 -10.476562 1.34375 -11.4375 C 1.34375 -12.851562 1.859375 -13.953125 2.890625 -14.734375 C 3.929688 -15.523438 5.460938 -15.921875 7.484375 -15.921875 C 9.410156 -15.921875 10.925781 -15.457031 12.03125 -14.53125 C 12.945312 -13.757812 13.476562 -12.738281 13.625 -11.46875 Z M 11.25 -11.46875 "/></g></g></g><g fill="#a46b40" fill-opacity="1"><g transform="translate(59.712802, 26.183017)"><g><path d="M 11.25 -11.46875 C 11.039062 -13.09375 9.726562 -13.90625 7.3125 -13.90625 C 4.90625 -13.90625 3.703125 -13.15625 3.703125 -11.65625 C 3.703125 -11.03125 3.957031 -10.554688 4.46875 -10.234375 C 4.976562 -9.910156 5.617188 -9.640625 6.390625 -9.421875 C 7.160156 -9.210938 8 -9.019531 8.90625 -8.84375 C 9.820312 -8.664062 10.664062 -8.414062 11.4375 -8.09375 C 12.207031 -7.769531 12.847656 -7.328125 13.359375 -6.765625 C 13.867188 -6.203125 14.125 -5.429688 14.125 -4.453125 C 14.125 -2.921875 13.550781 -1.753906 12.40625 -0.953125 C 11.257812 -0.148438 9.703125 0.25 7.734375 0.25 C 5.648438 0.25 3.988281 -0.269531 2.75 -1.3125 C 1.625 -2.226562 1.019531 -3.429688 0.9375 -4.921875 L 3.390625 -4.921875 C 3.535156 -3.472656 4.347656 -2.5 5.828125 -2 C 6.367188 -1.832031 6.90625 -1.75 7.4375 -1.75 C 7.96875 -1.75 8.460938 -1.78125 8.921875 -1.84375 C 9.390625 -1.90625 9.84375 -2.019531 10.28125 -2.1875 C 11.28125 -2.582031 11.78125 -3.265625 11.78125 -4.234375 C 11.78125 -4.878906 11.523438 -5.375 11.015625 -5.71875 C 10.503906 -6.0625 9.859375 -6.34375 9.078125 -6.5625 C 8.304688 -6.78125 7.46875 -6.976562 6.5625 -7.15625 C 5.65625 -7.332031 4.8125 -7.578125 4.03125 -7.890625 C 3.257812 -8.203125 2.617188 -8.628906 2.109375 -9.171875 C 1.597656 -9.722656 1.34375 -10.476562 1.34375 -11.4375 C 1.34375 -12.851562 1.859375 -13.953125 2.890625 -14.734375 C 3.929688 -15.523438 5.460938 -15.921875 7.484375 -15.921875 C 9.410156 -15.921875 10.925781 -15.457031 12.03125 -14.53125 C 12.945312 -13.757812 13.476562 -12.738281 13.625 -11.46875 Z M 11.25 -11.46875 "/></g></g></g><g fill="#a46b40" fill-opacity="1"><g transform="translate(74.813729, 26.183017)"><g><path d="M 8.828125 -15.921875 C 11.171875 -15.921875 13.070312 -15.132812 14.53125 -13.5625 C 15.914062 -12.0625 16.609375 -10.148438 16.609375 -7.828125 C 16.609375 -5.515625 15.914062 -3.601562 14.53125 -2.09375 C 13.070312 -0.53125 11.171875 0.25 8.828125 0.25 C 6.492188 0.25 4.597656 -0.53125 3.140625 -2.09375 C 1.753906 -3.601562 1.0625 -5.515625 1.0625 -7.828125 C 1.0625 -10.148438 1.753906 -12.0625 3.140625 -13.5625 C 4.597656 -15.132812 6.492188 -15.921875 8.828125 -15.921875 Z M 8.828125 -1.875 C 10.523438 -1.875 11.863281 -2.460938 12.84375 -3.640625 C 13.78125 -4.742188 14.25 -6.140625 14.25 -7.828125 C 14.25 -9.523438 13.78125 -10.925781 12.84375 -12.03125 C 11.863281 -13.195312 10.523438 -13.78125 8.828125 -13.78125 C 7.140625 -13.78125 5.804688 -13.195312 4.828125 -12.03125 C 3.890625 -10.925781 3.421875 -9.523438 3.421875 -7.828125 C 3.421875 -6.140625 3.890625 -4.742188 4.828125 -3.640625 C 5.804688 -2.460938 7.140625 -1.875 8.828125 -1.875 Z M 8.828125 -1.875 "/></g></g></g><g fill="#a46b40" fill-opacity="1"><g transform="translate(92.483696, 26.183017)"><g><path d="M 3.734375 0 L 3.734375 -13.59375 L 0.53125 -13.59375 L 0.53125 -15.671875 L 3.734375 -15.671875 L 3.734375 -21.265625 L 6.078125 -21.265625 L 6.078125 -15.671875 L 9.6875 -15.671875 L 9.6875 -13.59375 L 6.078125 -13.59375 L 6.078125 0 Z M 3.734375 0 "/></g></g></g><g fill="#a46b40" fill-opacity="1"><g transform="translate(102.697186, 26.183017)"><g><path d="M 9.015625 -1.875 C 11.128906 -1.875 12.644531 -2.753906 13.5625 -4.515625 L 16.140625 -4.515625 C 15.585938 -3.085938 14.722656 -1.9375 13.546875 -1.0625 C 12.367188 -0.1875 10.847656 0.25 8.984375 0.25 C 6.628906 0.25 4.710938 -0.53125 3.234375 -2.09375 C 1.785156 -3.625 1.0625 -5.535156 1.0625 -7.828125 C 1.0625 -10.148438 1.753906 -12.0625 3.140625 -13.5625 C 4.597656 -15.132812 6.492188 -15.921875 8.828125 -15.921875 C 11.171875 -15.921875 13.070312 -15.132812 14.53125 -13.5625 C 15.914062 -12.0625 16.609375 -10.148438 16.609375 -7.828125 L 16.609375 -6.890625 L 3.484375 -6.890625 C 3.648438 -5.453125 4.222656 -4.265625 5.203125 -3.328125 C 6.203125 -2.359375 7.472656 -1.875 9.015625 -1.875 Z M 8.828125 -13.78125 C 7.390625 -13.78125 6.179688 -13.332031 5.203125 -12.4375 C 4.285156 -11.582031 3.722656 -10.460938 3.515625 -9.078125 L 14.15625 -9.078125 C 13.945312 -10.460938 13.382812 -11.582031 12.46875 -12.4375 C 11.488281 -13.332031 10.273438 -13.78125 8.828125 -13.78125 Z M 8.828125 -13.78125 "/></g></g></g><g fill="#a46b40" fill-opacity="1"><g transform="translate(120.147845, 26.183017)"><g><path d="M 10.3125 -15.921875 L 10.3125 -13.5625 L 10.03125 -13.5625 C 8.332031 -13.5625 6.953125 -12.882812 5.890625 -11.53125 C 4.890625 -10.238281 4.390625 -8.691406 4.390625 -6.890625 L 4.390625 0 L 2.03125 0 L 2.03125 -15.671875 L 4.390625 -15.671875 L 4.390625 -11.8125 C 4.890625 -13.4375 5.972656 -14.632812 7.640625 -15.40625 C 8.328125 -15.75 9.164062 -15.921875 10.15625 -15.921875 Z M 10.3125 -15.921875 "/></g></g></g><g fill="#a46b40" fill-opacity="1"><g transform="translate(130.956605, 26.183017)"><g><path d="M 14.25 -2.5 C 13 -0.664062 11.128906 0.25 8.640625 0.25 C 6.390625 0.25 4.554688 -0.53125 3.140625 -2.09375 C 1.753906 -3.644531 1.0625 -5.554688 1.0625 -7.828125 C 1.0625 -10.109375 1.753906 -12.019531 3.140625 -13.5625 C 4.554688 -15.132812 6.441406 -15.921875 8.796875 -15.921875 C 11.160156 -15.921875 12.976562 -14.988281 14.25 -13.125 L 14.25 -15.671875 L 16.609375 -15.671875 L 16.609375 0 L 14.25 0 Z M 8.953125 -1.875 C 10.648438 -1.875 11.988281 -2.460938 12.96875 -3.640625 C 13.90625 -4.742188 14.375 -6.140625 14.375 -7.828125 C 14.375 -9.523438 13.90625 -10.925781 12.96875 -12.03125 C 11.988281 -13.195312 10.648438 -13.78125 8.953125 -13.78125 C 7.285156 -13.78125 5.929688 -13.195312 4.890625 -12.03125 C 3.910156 -10.925781 3.421875 -9.523438 3.421875 -7.828125 C 3.421875 -6.140625 3.910156 -4.742188 4.890625 -3.640625 C 5.929688 -2.460938 7.285156 -1.875 8.953125 -1.875 Z M 8.953125 -1.875 "/></g></g></g><g fill="#a46b40" fill-opacity="1"><g transform="translate(149.597805, 26.183017)"><g><path d="M 4.390625 -13.15625 C 5.640625 -15 7.507812 -15.921875 10 -15.921875 C 12.25 -15.921875 14.070312 -15.132812 15.46875 -13.5625 C 16.875 -12.019531 17.578125 -10.109375 17.578125 -7.828125 C 17.578125 -5.554688 16.875 -3.644531 15.46875 -2.09375 C 14.070312 -0.53125 12.191406 0.25 9.828125 0.25 C 7.472656 0.25 5.660156 -0.675781 4.390625 -2.53125 L 4.390625 6.203125 L 2.03125 6.203125 L 2.03125 -15.671875 L 4.390625 -15.671875 Z M 9.6875 -13.78125 C 7.988281 -13.78125 6.648438 -13.195312 5.671875 -12.03125 C 4.734375 -10.925781 4.265625 -9.523438 4.265625 -7.828125 C 4.265625 -6.140625 4.734375 -4.742188 5.671875 -3.640625 C 6.648438 -2.460938 7.988281 -1.875 9.6875 -1.875 C 11.351562 -1.875 12.707031 -2.460938 13.75 -3.640625 C 14.726562 -4.742188 15.21875 -6.140625 15.21875 -7.828125 C 15.21875 -9.523438 14.726562 -10.925781 13.75 -12.03125 C 12.707031 -13.195312 11.351562 -13.78125 9.6875 -13.78125 Z M 9.6875 -13.78125 "/></g></g></g><g fill="#a46b40" fill-opacity="1"><g transform="translate(168.20767, 26.183017)"><g><path d="M 9.015625 -1.875 C 11.128906 -1.875 12.644531 -2.753906 13.5625 -4.515625 L 16.140625 -4.515625 C 15.585938 -3.085938 14.722656 -1.9375 13.546875 -1.0625 C 12.367188 -0.1875 10.847656 0.25 8.984375 0.25 C 6.628906 0.25 4.710938 -0.53125 3.234375 -2.09375 C 1.785156 -3.625 1.0625 -5.535156 1.0625 -7.828125 C 1.0625 -10.148438 1.753906 -12.0625 3.140625 -13.5625 C 4.597656 -15.132812 6.492188 -15.921875 8.828125 -15.921875 C 11.171875 -15.921875 13.070312 -15.132812 14.53125 -13.5625 C 15.914062 -12.0625 16.609375 -10.148438 16.609375 -7.828125 L 16.609375 -6.890625 L 3.484375 -6.890625 C 3.648438 -5.453125 4.222656 -4.265625 5.203125 -3.328125 C 6.203125 -2.359375 7.472656 -1.875 9.015625 -1.875 Z M 8.828125 -13.78125 C 7.390625 -13.78125 6.179688 -13.332031 5.203125 -12.4375 C 4.285156 -11.582031 3.722656 -10.460938 3.515625 -9.078125 L 14.15625 -9.078125 C 13.945312 -10.460938 13.382812 -11.582031 12.46875 -12.4375 C 11.488281 -13.332031 10.273438 -13.78125 8.828125 -13.78125 Z M 8.828125 -13.78125 "/></g></g></g><g fill="#a46b40" fill-opacity="1"><g transform="translate(185.658329, 26.183017)"><g><path d="M 13.34375 0 L 13.34375 -2.4375 C 12.78125 -1.6875 12.09375 -1.050781 11.28125 -0.53125 C 10.46875 -0.0078125 9.535156 0.25 8.484375 0.25 C 7.441406 0.25 6.546875 0.101562 5.796875 -0.1875 C 5.046875 -0.476562 4.390625 -0.914062 3.828125 -1.5 C 2.523438 -2.78125 1.875 -4.460938 1.875 -6.546875 L 1.875 -15.671875 L 4.234375 -15.671875 L 4.234375 -6.609375 C 4.234375 -5.171875 4.640625 -4.019531 5.453125 -3.15625 C 6.265625 -2.300781 7.316406 -1.875 8.609375 -1.875 C 9.929688 -1.875 11.050781 -2.316406 11.96875 -3.203125 C 12.882812 -4.097656 13.34375 -5.242188 13.34375 -6.640625 L 13.34375 -15.671875 L 15.703125 -15.671875 L 15.703125 0 Z M 13.34375 0 "/></g></g></g><g fill="#a46b40" fill-opacity="1"><g transform="translate(203.390964, 26.183017)"><g><path d="M 3.734375 0 L 3.734375 -13.59375 L 0.53125 -13.59375 L 0.53125 -15.671875 L 3.734375 -15.671875 L 3.734375 -21.265625 L 6.078125 -21.265625 L 6.078125 -15.671875 L 9.6875 -15.671875 L 9.6875 -13.59375 L 6.078125 -13.59375 L 6.078125 0 Z M 3.734375 0 "/></g></g></g><g fill="#a46b40" fill-opacity="1"><g transform="translate(213.604454, 26.183017)"><g><path d="M 14.25 -2.5 C 13 -0.664062 11.128906 0.25 8.640625 0.25 C 6.390625 0.25 4.554688 -0.53125 3.140625 -2.09375 C 1.753906 -3.644531 1.0625 -5.554688 1.0625 -7.828125 C 1.0625 -10.109375 1.753906 -12.019531 3.140625 -13.5625 C 4.554688 -15.132812 6.441406 -15.921875 8.796875 -15.921875 C 11.160156 -15.921875 12.976562 -14.988281 14.25 -13.125 L 14.25 -15.671875 L 16.609375 -15.671875 L 16.609375 0 L 14.25 0 Z M 8.953125 -1.875 C 10.648438 -1.875 11.988281 -2.460938 12.96875 -3.640625 C 13.90625 -4.742188 14.375 -6.140625 14.375 -7.828125 C 14.375 -9.523438 13.90625 -10.925781 12.96875 -12.03125 C 11.988281 -13.195312 10.648438 -13.78125 8.953125 -13.78125 C 7.285156 -13.78125 5.929688 -13.195312 4.890625 -12.03125 C 3.910156 -10.925781 3.421875 -9.523438 3.421875 -7.828125 C 3.421875 -6.140625 3.910156 -4.742188 4.890625 -3.640625 C 5.929688 -2.460938 7.285156 -1.875 8.953125 -1.875 Z M 8.953125 -1.875 "/></g></g></g></g></g></g></g></g></svg>